<?xml version="1.0" encoding="UTF-8"?>
<!DOCTYPE svg PUBLIC "-//W3C//DTD SVG 1.1//EN" "http://www.w3.org/Graphics/SVG/1.1/DTD/svg11.dtd">
<!-- Creator: CorelDRAW -->
<svg xmlns="http://www.w3.org/2000/svg" xml:space="preserve" width="29mm" height="15mm" style="shape-rendering:geometricPrecision; text-rendering:geometricPrecision; image-rendering:optimizeQuality; fill-rule:evenodd; clip-rule:evenodd"
viewBox="0 0 29 15"
 xmlns:xlink="http://www.w3.org/1999/xlink">
 <defs>
  <style type="text/css">
   <![CDATA[
    .fil1 {fill:#4D879E}
    .fil0 {fill:#C0CC7D}
   ]]>
  </style>
 </defs>
 <g id="Layer_x0020_1">
  <metadata id="CorelCorpID_0Corel-Layer"/>
  <g id="_488830560">
   <path id="_498520984" class="fil0" d="M14.4403 1.0709l2.8656 0.3879c0.2074,-0.2801 0.4337,-0.5417 0.6761,-0.7839l0.5874 0.5874c-0.5432,0.5428 -0.9944,1.196 -1.3156,1.9449 -1.3527,3.1533 0.1071,6.8062 3.2604,8.1586 2.4044,1.0315 5.0991,0.4275 6.8431,-1.3155l0.5875 0.5874c-0.2876,0.2873 -0.598,0.5475 -0.9269,0.7785l0.3161 2.8752c-0.5092,0.2574 -1.0402,0.4695 -1.5865,0.634l-1.7524 -2.3012c-0.7325,0.1093 -1.4876,0.1035 -2.2381,-0.0274l-1.8092 2.256c-0.2684,-0.0882 -0.5352,-0.1883 -0.7999,-0.3017 -0.2646,-0.1136 -0.521,-0.2381 -0.77,-0.3717l0.3879 -2.8656c-0.6123,-0.4536 -1.1365,-0.9969 -1.5623,-1.6029l-2.8752 0.3161c-0.2574,-0.5092 -0.4695,-1.0402 -0.634,-1.5865l2.3012 -1.7524c-0.1093,-0.7325 -0.1036,-1.4876 0.0274,-2.2381l-2.256 -1.8092c0.0882,-0.2684 0.1882,-0.5352 0.3017,-0.7999 0.1136,-0.2646 0.2381,-0.521 0.3717,-0.77z"/>
   <path id="_498520720" class="fil1" d="M14.8872 13.6697l-2.8917 -0.0227c-0.1704,0.304 -0.3618,0.5921 -0.5716,0.863l-0.6569 -0.5085c0.4702,-0.6071 0.8353,-1.312 1.0593,-2.0955 0.9436,-3.2989 -0.9659,-6.7381 -4.2648,-7.6815 -2.5154,-0.7194 -5.1122,0.22 -6.6221,2.1694l-0.657 -0.5085c0.249,-0.3213 0.5241,-0.6186 0.8211,-0.8894l-0.6767 -2.8122c0.4727,-0.3196 0.9726,-0.5971 1.4937,-0.8293l2.0291 2.0614c0.7128,-0.2009 1.4626,-0.2906 2.2236,-0.2555l1.5098 -2.4665c0.2774,0.0536 0.5547,0.1192 0.8315,0.1983 0.2769,0.0793 0.547,0.1704 0.8108,0.2714l-0.0227 2.8917c0.6646,0.3726 1.2532,0.8453 1.7522,1.3927l2.8122 -0.6768c0.3197,0.4727 0.5971,0.9726 0.8293,1.4938l-2.0614 2.029c0.201,0.7129 0.2906,1.4626 0.2556,2.2237l2.4664 1.5097c-0.0536,0.2774 -0.1192,0.5547 -0.1983,0.8316 -0.0792,0.2769 -0.1703,0.5469 -0.2714,0.8107z"/>
   <polygon id="_403105240" class="fil0" points="22.8312,0.0746 23.2138,5.5784 28.7176,5.9609 23.2138,6.3435 22.8312,11.8473 22.4486,6.3435 16.9448,5.9609 22.4486,5.5784 "/>
   <polygon id="_403105648" class="fil1" points="10.6379,7.0026 6.3094,9.8317 8.5124,14.51 5.6834,10.1815 1.0051,12.3845 5.3336,9.5554 3.1306,4.8771 5.9596,9.2056 "/>
  </g>
 </g>
</svg>
